<svg xmlns="http://www.w3.org/2000/svg" width="1234.667" height="1298.338" viewBox="0 0 1234.667 1298.338">
  <g id="tar" transform="translate(-5.9 -4.07)">
    <path id="Path_1" data-name="Path 1" d="M199.987,158.789a45.149,45.149,0,1,1-45.149-45.149A45.136,45.136,0,0,1,199.987,158.789Z" transform="translate(468.367 494.45)" fill="#fff"/>
    <g id="Group_53" data-name="Group 53" transform="translate(226.902 275.127)">
      <g id="Group_15" data-name="Group 15" transform="translate(251.999 2.536)">
        <g id="Group_14" data-name="Group 14">
          <g id="Group_12" data-name="Group 12">
            <path id="Path_2" data-name="Path 2" d="M214.619,326.521,195.656,295.1c-21.94-36.328-54.851-65.766-92.723-82.91l-2.481-1.1-.772-2.591c-21.113-69.018,6.229-144.872,7.387-148.07l2.481-6.725,6.174,3.638c2.756,1.6,67.971,40.242,104.189,104.8l1.488,2.646-1.213,2.756c-16.593,37.1-21.885,85.5-13.451,123.208Zm-104.3-124.09a223.6,223.6,0,0,1,80.926,65.1c-2.426-33.737,3.528-71.334,16.7-102.149-28.39-48.9-75.082-82.579-91.951-93.715C109.934,91.572,95.215,149.73,110.32,202.431Z" transform="translate(-91.703 -53.7)" fill="#fff"/>
          </g>
          <g id="Group_13" data-name="Group 13" transform="translate(21.641 36.935)">
            <path id="Path_3" data-name="Path 3" d="M176.948,245.294l-13.23-17.861a220.442,220.442,0,0,0-63.23-57.332l-2.481-1.488-.386-2.867c-4.024-30.705-1.929-64.222,6.064-97.023l2.04-8.324,7.111,4.8c27.012,18.192,53.032,43.715,69.57,68.3l1.6,2.426-.882,2.756c-8.269,25.909-11.577,58.324-8.655,84.564Zm-67.861-83.958A233.516,233.516,0,0,1,161.4,205.548a230.747,230.747,0,0,1,9.427-67.75c-14.223-20.452-35.171-41.4-57.5-57.662C107.544,107.754,106.056,135.592,109.088,161.336Z" transform="translate(-95.628 -60.4)" fill="#fff"/>
          </g>
          <path id="Path_4" data-name="Path 4" d="M132.684,144.838a207.172,207.172,0,0,0-15.325-15.546c-8.048-7.387-17.089-14.333-17.089-14.333s-.221-11.08.662-22.657a210.7,210.7,0,0,1,2.756-23.043s9.261,7.442,17.475,15.27c4.134,3.859,8.048,7.883,10.97,11.191,2.811,3.2,4.741,5.347,4.741,5.347s-.5,2.756-1.213,6.836C133.677,118.488,132.629,133.923,132.684,144.838Z" transform="translate(-53.153 16.517)" fill="#fff"/>
        </g>
      </g>
      <g id="Group_52" data-name="Group 52">
        <g id="Group_19" data-name="Group 19" transform="translate(73.263 146.985)">
          <g id="Group_18" data-name="Group 18">
            <g id="Group_16" data-name="Group 16">
              <path id="Path_5" data-name="Path 5" d="M304.593,240.468,270.8,226.191c-39.085-16.483-83.02-20.948-123.759-12.569l-2.646.551-2.15-1.654C84.583,169.135,62.147,91.682,61.209,88.43L59.28,81.539l7.111-.717c3.2-.331,78.665-7.387,145.865,23.539l2.756,1.268.606,2.922c8.379,39.8,32.525,82.028,61.521,107.552ZM188.055,197.525a226.261,226.261,0,0,1,62.954,8.986c-21.775-25.854-39.085-59.812-46.527-92.447C152.885,91.241,95.222,91.406,74.991,92.288c6.836,19.625,29.107,75.358,72.271,109.04A219.425,219.425,0,0,1,188.055,197.525Z" transform="translate(-59.28 -79.903)" fill="#fff"/>
            </g>
            <g id="Group_17" data-name="Group 17" transform="translate(32.855 22.856)">
              <path id="Path_6" data-name="Path 6" d="M231.612,192.265l-21.224-6.67a220.149,220.149,0,0,0-84.895-9.206l-2.867.276-1.985-2.095c-21.279-22.436-39.305-50.827-52.15-82.083L65.24,84.548l8.6-.331c32.525-1.213,68.577,4.19,96.416,14.388l2.7.992.937,2.756c8.545,25.854,24.917,54.024,42.723,73.484Zm-87.155-28.721a235.178,235.178,0,0,1,51.212,5.678,230.983,230.983,0,0,1-32.249-60.363c-23.539-8.159-52.811-12.844-80.374-12.844,11.521,25.744,26.681,49.118,44.322,68.191C133.046,163.765,138.779,163.545,144.457,163.545Z" transform="translate(-65.24 -84.05)" fill="#fff"/>
            </g>
            <path id="Path_7" data-name="Path 7" d="M141.171,133.4a203.566,203.566,0,0,0-21.554-3.583c-10.86-1.268-22.271-1.544-22.271-1.544s-6.67-8.875-12.789-18.688A217.166,217.166,0,0,1,73.2,89.3s11.852.551,23.1,2.095c5.623.717,11.136,1.654,15.435,2.591,4.19.937,6.946,1.544,6.946,1.544s1.213,2.481,3.032,6.229A240.214,240.214,0,0,0,141.171,133.4Z" transform="translate(3.536 -37.499)" fill="#fff"/>
          </g>
        </g>
        <g id="Group_23" data-name="Group 23" transform="translate(0 310.362)">
          <g id="Group_22" data-name="Group 22">
            <g id="Group_20" data-name="Group 20">
              <path id="Path_8" data-name="Path 8" d="M192.847,238.811l-2.7-.055C117.985,237.544,54.314,188.1,51.613,186l-5.623-4.41,5.347-4.741c2.37-2.15,59.316-52.2,131.863-66.7l2.977-.606,2.26,2.04c30.154,27.232,74.531,47.243,113.009,50.882l36.549,3.473-35.722,8.324c-41.29,9.647-79.492,31.863-107.5,62.569ZM65.064,180.984c17.089,11.852,67.861,43.825,122.6,45.755A223.953,223.953,0,0,1,274.6,169.9c-32.855-8.159-66.758-25.413-92.006-47.409C127.357,134.347,80.885,168.36,65.064,180.984Z" transform="translate(-45.99 -109.54)" fill="#fff"/>
            </g>
            <g id="Group_21" data-name="Group 21" transform="translate(39.36 19.019)">
              <path id="Path_9" data-name="Path 9" d="M153.681,204.941l-2.867-.551c-30.43-5.623-61.686-18.026-90.407-35.777l-7.277-4.52,6.781-5.292c25.634-20.066,57.938-36.935,86.438-45.038l2.756-.772,2.37,1.709c22.106,15.876,51.874,29.052,77.783,34.344l21.775,4.465-21.058,7.056a220.42,220.42,0,0,0-74.09,42.447ZM74.354,162.99c24.421,14.057,50.441,24.035,75.909,29.107a233.044,233.044,0,0,1,58.213-36.053A230.08,230.08,0,0,1,146.9,126.165C123.085,133.332,96.68,146.783,74.354,162.99Z" transform="translate(-53.13 -112.99)" fill="#fff"/>
            </g>
            <path id="Path_10" data-name="Path 10" d="M143.481,135.305a191.678,191.678,0,0,0-19.515,9.757c-9.537,5.347-18.908,11.852-18.908,11.852s-10.639-3.2-21.334-7.607A220.657,220.657,0,0,1,62.61,139.55s9.923-6.56,19.9-11.907c4.961-2.7,9.978-5.237,14-6.946,3.914-1.709,6.56-2.867,6.56-2.867s2.426,1.323,6.119,3.308C118.729,126.209,133.117,131.942,143.481,135.305Z" transform="translate(29.01 -72.13)" fill="#fff"/>
          </g>
        </g>
        <g id="Group_27" data-name="Group 27" transform="translate(78.169 430.207)">
          <g id="Group_26" data-name="Group 26">
            <g id="Group_24" data-name="Group 24">
              <path id="Path_11" data-name="Path 11" d="M72.132,315.9c-2.7,0-4.41-.055-4.8-.055l-7.166-.276,1.544-7c.661-3.142,17.255-77.067,67.475-131.477l2.04-2.205,2.977.331c40.463,4.3,88.037-5.623,121.333-25.248l31.587-18.688L263.09,159.009c-27.729,32.084-45.59,72.491-50.165,113.836l-.276,2.7-2.205,1.544C158.846,313.252,90.82,315.9,72.132,315.9Zm63.836-128.445C98.262,229.46,80.622,284.366,75.275,303.881c20.783-.441,80.65-4.41,126.074-35.06a223.133,223.133,0,0,1,36.935-97.078C206.917,184.477,169.32,190.431,135.969,187.454Z" transform="translate(-60.17 -131.28)" fill="#fff"/>
            </g>
            <g id="Group_25" data-name="Group 25" transform="translate(30.816 34.73)">
              <path id="Path_12" data-name="Path 12" d="M65.76,262.5l2.37-8.269c8.931-31.312,25.193-63.947,43.495-87.265l1.764-2.26h2.922c27.177-.165,59.04-7,83.131-17.916l20.231-9.206-12.9,18.137a221.532,221.532,0,0,0-35.005,77.894l-.661,2.811-2.591,1.268c-27.949,13.341-60.474,21.72-94.156,24.2Zm53.473-85.832c-15.05,19.846-28.5,46.251-37.045,72.491,28-2.977,54.961-10.2,78.555-21.058a232.687,232.687,0,0,1,25.909-63.4A234.42,234.42,0,0,1,119.233,176.665Z" transform="translate(-65.76 -137.58)" fill="#fff"/>
            </g>
            <path id="Path_13" data-name="Path 13" d="M136.029,145.01A199.245,199.245,0,0,0,126,164.415c-4.575,9.923-8.379,20.672-8.379,20.672s-10.474,3.638-21.72,6.395A214.479,214.479,0,0,1,73.13,196s4.19-11.136,9.1-21.334c2.426-5.127,5.017-10.088,7.222-13.837,2.15-3.693,3.638-6.119,3.638-6.119s2.756-.386,6.891-.937A235.333,235.333,0,0,0,136.029,145.01Z" transform="translate(-1.686 -69.321)" fill="#fff"/>
          </g>
        </g>
        <g id="Group_31" data-name="Group 31" transform="translate(250.75 473.922)">
          <g id="Group_30" data-name="Group 30">
            <g id="Group_28" data-name="Group 28">
              <path id="Path_14" data-name="Path 14" d="M118.563,421.623l-2.867-6.56c-1.268-2.922-31.312-72.546-22.657-145.975l.331-2.977,2.591-1.488c35.281-20.287,67.971-56.284,83.3-91.73l14.608-33.682-3.142,36.549c-3.583,42.282,5.733,85.446,26.3,121.609l1.323,2.37-.882,2.536c-23.429,68.247-90.132,113.561-93,115.435ZM104.616,273.388C98.828,329.617,116.8,384.3,123.911,403.266c16.593-12.569,62.624-50.992,81.367-102.48A223.393,223.393,0,0,1,178.1,200.566C160.239,229.287,133.337,256.188,104.616,273.388Z" transform="translate(-91.476 -139.21)" fill="#fff"/>
            </g>
            <g id="Group_29" data-name="Group 29" transform="translate(18.358 52.921)">
              <path id="Path_15" data-name="Path 15" d="M113.954,340.264l-2.922-8.049c-11.191-30.6-17.2-66.538-16.1-96.141l.11-2.867,2.315-1.709c21.94-16.1,43.66-40.353,56.725-63.34l10.97-19.349.221,22.216A221.355,221.355,0,0,0,182.752,254.6l1.158,2.646-1.378,2.536c-14.774,27.177-36.218,53.087-61.962,74.917Zm-7.166-100.937c-.5,24.917,4.134,54.189,12.624,80.429,20.893-18.908,38.478-40.573,51.157-63.175a233.909,233.909,0,0,1-16.317-66.538A230.254,230.254,0,0,1,106.788,239.328Z" transform="translate(-94.807 -148.81)" fill="#fff"/>
            </g>
            <path id="Path_16" data-name="Path 16" d="M128.367,160.18a208.3,208.3,0,0,0,3.252,21.61c2.15,10.695,5.4,21.665,5.4,21.665s-6.34,9.1-13.837,17.971a214.27,214.27,0,0,1-15.766,17.034s-3.142-11.466-5.182-22.6c-1.047-5.568-1.874-11.136-2.315-15.49-.386-4.245-.662-7.111-.662-7.111s1.985-1.929,5.017-4.8A241.572,241.572,0,0,0,128.367,160.18Z" transform="translate(-56.352 -44.58)" fill="#fff"/>
          </g>
        </g>
        <g id="Group_35" data-name="Group 35" transform="translate(410.913 480.813)">
          <g id="Group_34" data-name="Group 34">
            <g id="Group_32" data-name="Group 32">
              <path id="Path_17" data-name="Path 17" d="M232.382,413.336l-6.174-3.638c-2.756-1.6-67.971-40.242-104.189-104.8l-1.488-2.646,1.213-2.756c16.593-37.1,21.885-85.5,13.451-123.208L127.2,140.46l18.964,31.422c21.94,36.328,54.851,65.766,92.723,82.91l2.481,1.1.772,2.591c21.113,69.018-6.229,144.872-7.387,148.015Zm-98.4-111.686c28.335,48.842,75.082,82.579,91.951,93.715,6.009-19.9,20.728-78.059,5.623-130.7a222.962,222.962,0,0,1-80.87-65.1C153.055,233.238,147.1,270.889,133.981,301.65Z" transform="translate(-120.53 -140.46)" fill="#fff"/>
            </g>
            <g id="Group_33" data-name="Group 33" transform="translate(19.625 51.047)">
              <path id="Path_18" data-name="Path 18" d="M202.425,334.669l-7.166-4.8c-27.012-18.192-53.032-43.715-69.57-68.3l-1.6-2.426.882-2.756c8.269-25.909,11.577-58.324,8.655-84.564l-2.481-22.106,13.23,17.861a220.44,220.44,0,0,0,63.23,57.331l2.481,1.488.386,2.867c4.024,30.705,1.929,64.222-6.064,97.023Zm-65.159-77.453c14.223,20.452,35.171,41.4,57.5,57.662,5.788-27.563,7.277-55.4,4.245-81.2a233.516,233.516,0,0,1-52.315-44.211A230.746,230.746,0,0,1,137.265,257.217Z" transform="translate(-124.09 -149.72)" fill="#fff"/>
            </g>
            <path id="Path_19" data-name="Path 19" d="M133.05,160.7a207.2,207.2,0,0,0,15.325,15.546c7.993,7.442,17.089,14.333,17.089,14.333s.22,11.08-.662,22.657a210.679,210.679,0,0,1-2.756,23.043s-9.261-7.442-17.475-15.27c-4.134-3.859-8.048-7.883-10.97-11.191-2.811-3.2-4.741-5.347-4.741-5.347s.5-2.756,1.213-6.836C132.057,187.05,133.1,171.615,133.05,160.7Z" transform="translate(-82.94 -49.124)" fill="#fff"/>
          </g>
        </g>
        <g id="Group_39" data-name="Group 39" transform="translate(473.922 448.784)">
          <g id="Group_38" data-name="Group 38">
            <g id="Group_36" data-name="Group 36">
              <path id="Path_20" data-name="Path 20" d="M347.174,295.123c-28.114,0-77.342-3.528-122.766-24.476l-2.756-1.268-.606-2.922c-8.379-39.8-32.525-82.028-61.521-107.552L131.96,134.65l33.848,14.278c39.085,16.483,83.02,20.948,123.759,12.569l2.646-.551,2.15,1.654c57.662,43.384,80.1,120.837,81.036,124.09l1.93,6.891-7.111.717C369.279,294.3,360.625,295.123,347.174,295.123ZM232.125,261c51.709,22.878,109.261,22.657,129.492,21.775-6.836-19.625-29.107-75.358-72.326-109.04a223.629,223.629,0,0,1-103.748-5.127C207.373,194.407,224.683,228.365,232.125,261Z" transform="translate(-131.96 -134.65)" fill="#fff"/>
            </g>
            <g id="Group_37" data-name="Group 37" transform="translate(46.141 29.437)">
              <path id="Path_21" data-name="Path 21" d="M289.171,248.2c-30.044,0-62.183-5.292-87.486-14.553l-2.7-.992-.937-2.756c-8.545-25.8-24.917-53.969-42.723-73.484L140.33,139.99l21.224,6.67a220.147,220.147,0,0,0,84.895,9.206l2.867-.276,1.985,2.095c21.334,22.437,39.36,50.827,52.15,82.083l3.252,7.938-8.6.331Q293.719,248.2,289.171,248.2Zm-80.65-24.862c23.539,8.159,52.811,12.844,80.374,12.844-11.521-25.744-26.681-49.118-44.322-68.191a233.376,233.376,0,0,1-68.3-5.017A232.742,232.742,0,0,1,208.521,223.341Z" transform="translate(-140.33 -139.99)" fill="#fff"/>
            </g>
            <path id="Path_22" data-name="Path 22" d="M150.22,146.37a203.557,203.557,0,0,0,21.554,3.583c10.86,1.268,22.271,1.543,22.271,1.543s6.67,8.82,12.789,18.688a217.173,217.173,0,0,1,11.356,20.286s-11.852-.551-23.1-2.095c-5.623-.717-11.136-1.654-15.435-2.591-4.19-.937-6.946-1.544-6.946-1.544s-1.213-2.481-3.032-6.229A233.222,233.222,0,0,0,150.22,146.37Z" transform="translate(-49.559 -81.762)" fill="#fff"/>
          </g>
        </g>
        <g id="Group_43" data-name="Group 43" transform="translate(500.603 316.646)">
          <g id="Group_42" data-name="Group 42">
            <g id="Group_40" data-name="Group 40">
              <path id="Path_23" data-name="Path 23" d="M288.618,239.951l-2.26-2.04c-30.154-27.232-74.531-47.243-113.009-50.882L136.8,183.557l35.722-8.324c41.29-9.647,79.492-31.863,107.5-62.569l1.819-1.985,2.7.055c72.16,1.213,135.832,50.661,138.533,52.756l5.623,4.41-5.347,4.741c-2.37,2.15-59.316,52.2-131.862,66.7ZM200.14,179.588C233,187.747,266.9,205,292.146,227c55.292-11.852,101.763-45.865,117.529-58.489-17.089-11.852-67.861-43.826-122.6-45.755A222.726,222.726,0,0,1,200.14,179.588Z" transform="translate(-136.8 -110.68)" fill="#fff"/>
            </g>
            <g id="Group_41" data-name="Group 41" transform="translate(54.63 18.302)">
              <path id="Path_24" data-name="Path 24" d="M248.639,205.9l-2.37-1.709c-22.106-15.876-51.874-29.052-77.783-34.344l-21.775-4.465,21.058-7.056a220.42,220.42,0,0,0,74.09-42.447l2.2-1.874,2.867.551c30.43,5.623,61.686,18.026,90.407,35.777l7.277,4.52-6.781,5.292C312.2,180.207,279.9,197.02,251.4,205.179Zm-59.316-43A230.078,230.078,0,0,1,250.9,192.776c23.87-7.221,50.275-20.672,72.6-36.824-24.421-14.057-50.441-24.035-75.909-29.107A234.36,234.36,0,0,1,189.323,162.9Z" transform="translate(-146.71 -114)" fill="#fff"/>
            </g>
            <path id="Path_25" data-name="Path 25" d="M158.47,140.36a206.008,206.008,0,0,0,19.515-9.757c9.537-5.347,18.908-11.852,18.908-11.852s10.584,3.2,21.334,7.607a220.658,220.658,0,0,1,21.113,9.757s-9.923,6.56-19.9,11.907c-4.961,2.7-9.978,5.237-14,6.946-3.914,1.709-6.56,2.811-6.56,2.811s-2.426-1.323-6.119-3.308A242.187,242.187,0,0,0,158.47,140.36Z" transform="translate(-39.011 -74.263)" fill="#fff"/>
          </g>
        </g>
        <g id="Group_47" data-name="Group 47" transform="translate(487.428 141.39)">
          <g id="Group_46" data-name="Group 46">
            <g id="Group_44" data-name="Group 44">
              <path id="Path_26" data-name="Path 26" d="M134.41,263.516l24.035-27.729c27.784-32.084,45.59-72.491,50.165-113.836l.276-2.7,2.205-1.544c59.1-41.4,139.69-38.864,143.053-38.754l7.166.276-1.544,7c-.661,3.142-17.255,77.067-67.475,131.477l-2.04,2.205-2.977-.331c-40.408-4.3-88.037,5.623-121.333,25.248Zm85.777-137.485a223.134,223.134,0,0,1-36.935,97.078c31.367-12.734,68.963-18.688,102.315-15.711,37.762-42.117,55.347-96.912,60.694-116.427C325.478,91.411,265.611,95.38,220.187,126.031Z" transform="translate(-134.41 -78.888)" fill="#fff"/>
            </g>
            <g id="Group_45" data-name="Group 45" transform="translate(42.282 24.927)">
              <path id="Path_27" data-name="Path 27" d="M142.08,208.382l12.9-18.137a220.549,220.549,0,0,0,35.005-77.894l.661-2.811,2.591-1.268c27.949-13.341,60.474-21.72,94.156-24.2l8.545-.662-2.37,8.269c-8.93,31.312-25.193,63.892-43.495,87.265l-1.764,2.26h-2.922c-27.177.165-59.04,7-83.131,17.916Zm58.93-90.407a232.687,232.687,0,0,1-25.909,63.4,232.273,232.273,0,0,1,67.365-12.018c15.049-19.9,28.5-46.251,37.045-72.491C251.506,99.893,224.549,107.114,201.01,117.974Z" transform="translate(-142.08 -83.41)" fill="#fff"/>
            </g>
            <path id="Path_28" data-name="Path 28" d="M151.21,140.392a199.25,199.25,0,0,0,10.033-19.4c4.576-9.923,8.379-20.672,8.379-20.672s10.474-3.638,21.72-6.395a214.477,214.477,0,0,1,22.767-4.52s-4.19,11.135-9.151,21.334c-2.426,5.127-5.016,10.088-7.222,13.837-2.15,3.693-3.638,6.119-3.638,6.119s-2.756.386-6.891.937A249.988,249.988,0,0,0,151.21,140.392Z" transform="translate(-58.598 -31.453)" fill="#fff"/>
          </g>
        </g>
        <g id="Group_51" data-name="Group 51" transform="translate(414.937)">
          <g id="Group_50" data-name="Group 50">
            <g id="Group_48" data-name="Group 48">
              <path id="Path_29" data-name="Path 29" d="M145.736,335.653l3.142-36.549c3.583-42.282-5.733-85.446-26.3-121.554l-1.323-2.37.882-2.536c23.429-68.247,90.132-113.56,93-115.435l5.954-3.969,2.867,6.56c1.268,2.922,31.312,72.546,22.657,146.03l-.331,2.977L243.7,210.3c-35.226,20.286-67.971,56.284-83.3,91.73ZM134.325,173.967A223.2,223.2,0,0,1,161.5,274.187c17.861-28.721,44.818-55.623,73.539-72.822,5.788-56.174-12.183-110.914-19.294-129.878C199.1,84.056,153.013,122.479,134.325,173.967Z" transform="translate(-121.26 -53.24)" fill="#fff"/>
            </g>
            <g id="Group_49" data-name="Group 49" transform="translate(19.405 37.982)">
              <path id="Path_30" data-name="Path 30" d="M143.633,251.584l-.22-22.216A220.3,220.3,0,0,0,125.938,145.8l-1.158-2.646,1.378-2.536c14.774-27.232,36.218-53.142,61.962-74.917l6.56-5.568,2.922,8.048c11.191,30.6,17.2,66.482,16.1,96.141l-.11,2.922-2.315,1.709c-21.94,16.1-43.66,40.353-56.725,63.34Zm-5.513-107.772a234.363,234.363,0,0,1,16.317,66.538A230.252,230.252,0,0,1,201.9,161.066c.5-24.917-4.134-54.189-12.624-80.429C168.385,99.49,150.8,121.155,138.121,143.812Z" transform="translate(-124.78 -60.13)" fill="#fff"/>
            </g>
            <path id="Path_31" data-name="Path 31" d="M138.295,147.57a208.277,208.277,0,0,0-3.252-21.61c-2.15-10.695-5.4-21.665-5.4-21.665s6.34-9.1,13.837-17.971A214.269,214.269,0,0,1,159.243,69.29s3.142,11.466,5.182,22.657c1.047,5.568,1.874,11.136,2.315,15.435.386,4.245.661,7.111.661,7.111s-1.985,1.929-5.017,4.8A241.571,241.571,0,0,0,138.295,147.57Z" transform="translate(-83.444 19.188)" fill="#fff"/>
          </g>
        </g>
      </g>
    </g>
    <g id="Group_84" data-name="Group 84" transform="translate(5.9 4.07)">
      <g id="Group_56" data-name="Group 56" transform="translate(925.077 644.979)">
        <g id="Group_54" data-name="Group 54">
          <path id="Path_32" data-name="Path 32" d="M259.046,416.052l-3.583-18.578c-.717-3.308-2.426-10.86-5.237-21.665-1.985-7.938-4.906-17.585-9.041-29.6-3.694-11.191-8.71-23.1-12.679-32.194-2.04-4.8-4.41-9.812-7.277-15.38-2.591-5.127-5.127-10.033-7.663-14.719-5.127-9.371-10.75-18.081-14.829-24.476-3.473-5.4-6.836-10.033-9.592-13.727L173.71,225.2l22-6.45c6.119-2.04,12.293-4.134,18.467-6.45,7.222-2.591,15.546-6.119,26.3-11.08,10.86-4.906,21.61-10.915,29.823-15.6a408.806,408.806,0,0,0,53.748-37.21c6.946-5.513,12.459-10.419,16.979-14.5l13.947-12.844L368.2,134.8c4.631,4.851,10.2,10.75,16.317,18.081a509.157,509.157,0,0,1,44.652,60.639C435.45,223.66,443.554,237,450.114,249.9c7.277,13.947,12.514,24.7,16.318,33.682,3.473,7.993,7,16.317,10.364,24.7l6.5,17.585-19.79,12.844c-5.017,3.2-11.246,7.222-18.908,11.521l-1.6.882c-9.206,5.182-19.68,11.08-31.257,16.758-6.119,2.977-12.4,5.9-18.743,8.765-7.111,3.252-13.561,6.009-19.625,8.324-12.293,4.8-25.468,9.813-38.423,13.671-13.727,4.245-24.421,7.167-33.462,9.206-10.915,2.536-18.688,4.134-23.263,5.017ZM208.44,236.615c2.37,3.252,5.127,7.166,7.938,11.577,4.245,6.615,10.088,15.711,15.6,25.744,2.646,4.851,5.292,9.978,7.938,15.27,3.032,6.009,5.623,11.411,7.828,16.593,4.135,9.482,9.372,21.94,13.286,33.792,4.245,12.459,7.387,22.657,9.482,31.091,1.985,7.663,3.859,15.215,5.182,21.389,5.843-1.158,13.286-2.756,21.058-4.576,8.6-1.929,18.743-4.686,32.028-8.82,12.293-3.638,25.027-8.49,36.935-13.175,5.733-2.205,11.742-4.8,18.523-7.883,6.229-2.811,12.293-5.678,18.247-8.545,10.97-5.4,21.168-11.08,30.154-16.152l1.6-.937c7.111-3.969,13.065-7.828,17.861-10.86l5.623-3.638-.606-1.654c-3.2-7.883-6.615-16.042-10.033-23.925-3.638-8.6-8.6-18.853-15.711-32.414-6.229-12.293-14-25.083-20.066-34.9a482.259,482.259,0,0,0-42.833-58.158c-5.4-6.45-10.309-11.742-14.443-16.1-4.576,4.134-10.088,9.041-16.869,14.388a437.527,437.527,0,0,1-56.5,39.085c-8.6,4.906-19.956,11.246-31.532,16.428-11.246,5.237-20.066,8.93-27.839,11.742C217.095,233.583,212.795,235.071,208.44,236.615Z" transform="translate(-173.71 -121.07)" fill="#fff"/>
        </g>
        <g id="Group_55" data-name="Group 55" transform="translate(47.188 47.243)">
          <path id="Path_33" data-name="Path 33" d="M246.327,337.908l-2.646-9.868c0-.055-2.15-7.993-6.229-19.46-2.315-6.67-4.8-13.341-7.332-19.79-2.922-7.056-6.174-14.443-9.482-21.665-3.142-7-6.891-14.057-10.474-20.672l-.717-1.323c-3.308-6.009-6.174-11.246-8.986-15.711-6.119-9.868-10.364-16.152-10.419-16.207L182.27,201.8l13.12-4.41c.055,0,7.277-2.426,17.42-6.836,6.45-2.7,12.624-5.458,18.467-8.214,6.67-3.308,13.616-6.891,20.452-10.639,7.222-3.859,13.947-7.993,20.286-11.962,6.45-4.079,12.624-8.048,17.53-11.521,9.868-7.056,16.7-12.293,16.758-12.348l8.048-6.229,6.45,7.883c.22.276,5.568,6.836,13.561,17.42,4.079,5.458,8.434,11.907,13.065,18.743,4.631,6.946,9.868,14.939,14.5,22.988,4.41,7.552,8.93,15.546,13.23,23.594,3.528,6.891,6.946,13.947,10.639,21.72,6.174,12.9,9.647,21.83,9.757,22.216l3.142,8.159-7.442,4.575c-.331.221-8.489,5.182-20.562,12.073-5.513,3.2-12.073,6.5-19.019,9.978l-2.536,1.268c-8.655,4.3-16.483,8.1-24.917,11.577-8.159,3.473-16.428,6.836-24.531,9.923-7.552,2.7-14.884,5.182-21.94,7.442-12.459,4.135-21.113,6.229-21.5,6.284ZM214.574,212.5q1.654,2.646,3.638,5.788c3.142,4.961,6.284,10.695,9.592,16.758l.772,1.378c3.8,7.056,7.773,14.5,11.136,22,3.418,7.387,6.725,14.994,9.868,22.547,2.7,6.946,5.237,13.837,7.607,20.617,1.488,4.134,2.7,7.828,3.693,10.915,2.922-.882,6.45-1.929,10.364-3.252,6.946-2.26,14.057-4.631,21.169-7.166,7.607-2.922,15.656-6.174,23.7-9.592,7.938-3.308,15.435-6.946,23.649-11.025l2.481-1.213c6.67-3.363,12.955-6.5,18.026-9.427,4.851-2.756,9.041-5.182,12.348-7.111-1.488-3.418-3.418-7.718-5.788-12.679-3.583-7.663-6.946-14.5-10.254-21-4.079-7.607-8.434-15.38-12.844-22.877-4.355-7.607-9.316-15.16-13.671-21.72-4.686-6.946-8.71-12.9-12.514-17.971-2.591-3.418-4.851-6.395-6.78-8.875-2.591,1.874-5.678,4.135-9.151,6.615-5.292,3.749-11.8,7.883-18.467,12.183-6.67,4.19-13.782,8.6-21.554,12.734-7,3.8-14.168,7.552-21.334,11.08-6.284,2.922-12.679,5.788-19.294,8.6C218.709,210.786,216.559,211.668,214.574,212.5Z" transform="translate(-182.27 -129.64)" fill="#fff"/>
        </g>
        <path id="Path_34" data-name="Path 34" d="M193.87,171.575s3.8-1.543,9.316-4.079c5.457-2.536,12.734-6.119,20.121-9.923,7.5-3.749,14.553-7.883,19.956-11.136s8.986-5.458,8.986-5.458,2.26,3.583,5.678,8.93c3.418,5.4,7.993,12.789,12.017,20.342,4.135,7.552,8.214,15.325,11.246,21.279,2.922,5.9,4.686,9.923,4.686,9.923s-3.914,2.095-9.757,5.237c-5.9,3.087-13.451,7.056-21.444,10.639-7.938,3.638-15.766,7-21.61,9.427-2.867,1.213-5.458,2.15-7.167,2.811-1.764.661-2.756,1.047-2.756,1.047s-.386-.992-1.048-2.646c-.717-1.709-1.6-4.079-2.977-7-2.591-5.788-6.119-13.4-9.7-20.728-3.473-7.332-7.607-14.608-10.529-19.9C195.855,175.048,193.87,171.575,193.87,171.575Z" transform="translate(-82.735 -31.224)" fill="#fff"/>
      </g>
      <g id="Group_59" data-name="Group 59" transform="translate(764.383 911.019)">
        <g id="Group_57" data-name="Group 57">
          <path id="Path_35" data-name="Path 35" d="M378.958,432.449l-23.208-1.213c-6.009-.331-13.506-.772-22.381-1.819l-3.693-.441c-9.978-1.158-21.279-2.426-33.3-4.631-6.615-1.158-13.451-2.481-20.231-3.859l-1.654-.331c-2.867-.606-5.733-1.158-8.655-1.819L255.53,415.8c-15.932-4.024-28.39-7.718-39.305-11.521-5.954-2.04-11.742-4.024-17.089-6.009-4.41-1.6-8.655-3.363-12.569-5.017l-2.7-1.1c-9.868-4.135-17.034-7.332-22.051-9.7L144.56,373.9l7.993-17.144c2.04-4.52,4.961-11.687,8.434-20.617l.882-2.26c1.378-3.583,2.811-7.277,4.134-11.3,1.654-5.016,3.363-10.253,5.017-15.656,2.977-9.316,5.788-20.231,8.6-33.462a387.417,387.417,0,0,0,7.993-61.576c.441-6.67.386-12.459.331-17.144l-.386-25.413,21.5,7.607c5.733,1.874,12.128,3.749,18.8,5.623,7.277,2.095,16.1,4.134,27.894,6.45,10.143,2.095,20.672,3.473,33.352,4.906,5.954.717,11.8,1.1,17.255,1.378,5.843.331,11.632.551,17.31.717,10.97.22,21.334-.165,30.981-.551,7.332-.331,13.726-.992,18.8-1.488l22.161-2.37,2.922,22.161c.661,5.292,1.543,12.514,2.15,20.783.662,10.088,1.433,21.885,1.544,34.619,0,6.395-.055,13.01-.22,19.846-.165,6.67-.386,13.837-.992,21.058-.992,12.844-2.26,27.784-4.465,41.565-2.371,15.821-4.465,27.508-6.615,36.769-2.481,11.3-4.686,20.4-6.064,26.02ZM172.178,364.2c4.52,2.15,11.08,5.016,19.735,8.655l2.646,1.1c3.693,1.544,7.663,3.2,11.742,4.686,5.237,1.929,10.8,3.859,16.7,5.9,10.419,3.638,22.326,7.111,37.6,10.97l10.088,2.481c2.536.551,5.292,1.158,7.993,1.709l1.654.331c6.56,1.323,13.23,2.591,19.68,3.749,11.411,2.04,22.326,3.308,31.973,4.41l3.749.441c8.269.992,15.38,1.378,21.168,1.709l6.34.386.441-1.654c1.323-5.237,3.473-14.112,5.9-25.248,2.04-8.82,4.024-20.066,6.34-35.446,2.095-13.12,3.308-27.508,4.245-40.022.551-6.725.772-13.506.937-19.845.165-6.615.22-13.065.22-19.184-.11-12.073-.827-23.539-1.488-33.3-.551-7.663-1.378-14.333-2.04-19.68l-.22-1.709-2.04.22c-5.347.551-11.963,1.158-19.956,1.543-10.033.386-20.783.772-32.414.551-6.009-.165-12.018-.441-18.026-.772-5.788-.331-12.018-.717-18.467-1.488-13.175-1.488-24.256-2.977-35.06-5.182-12.459-2.426-21.554-4.576-29.437-6.836-4.52-1.268-8.93-2.536-13.23-3.859,0,4.079-.055,8.875-.386,14.112a403.832,403.832,0,0,1-8.434,64.884c-2.977,13.892-5.954,25.413-9.1,35.281-1.654,5.458-3.418,10.915-5.127,16.1-1.488,4.355-2.977,8.379-4.465,12.183l-.882,2.315C177.195,352.35,174.384,359.241,172.178,364.2Z" transform="translate(-144.56 -169.33)" fill="#fff"/>
        </g>
        <g id="Group_58" data-name="Group 58" transform="translate(44.267 39.912)">
          <path id="Path_36" data-name="Path 36" d="M314.276,360.858l-8.71-.662c-.386-.055-9.868-.772-23.7-2.315-7.277-.827-15.766-2.2-24.035-3.528-7.277-1.213-16.924-2.867-26.957-5.237-7.773-1.764-16.979-3.969-25.8-6.395-7.608-2.2-14.939-4.465-22.051-6.78-6.45-2.095-11.632-3.859-15.38-5.347L152.59,324.86l5.347-15.16c1.213-3.308,2.756-8.159,4.52-14.168,1.985-6.725,3.914-13.561,5.678-20.342,1.544-6.284,3.142-13.671,5.017-23.1,1.323-6.5,2.481-13.727,3.694-22.822.937-7.387,1.764-14,2.2-19.68.827-11.521,1.047-19.074,1.047-19.184l.441-13.837,13.175,4.134c.055,0,7.332,2.26,18.137,4.686,4.686,1.1,11.8,2.7,19.735,4.19,7.442,1.268,15.215,2.426,22.877,3.418,7.5,1.047,14.884,1.6,22.051,2.15l1.433.11c7.221.5,14.774.992,20.728.992,12.348.165,20.948-.055,21-.055l10.2-.276.551,10.2c0,.331.441,8.82.606,22,.165,6.615-.11,14.167-.386,22.106l-.11,2.867c-.331,7.718-.772,16.483-1.709,24.972-.882,8.765-1.929,17.806-3.142,26.847-1.488,9.537-3.087,18.137-4.134,23.815-2.591,14.057-5.017,23.319-5.127,23.7Zm-135.06-48.346c2.867,1.047,6.395,2.205,10.309,3.473,6.891,2.26,14.057,4.465,21.279,6.56,8.269,2.26,17.2,4.41,24.862,6.119,9.482,2.26,18.633,3.859,25.579,4.961,7.993,1.268,16.207,2.646,22.988,3.418,5.458.606,10.253,1.1,14.057,1.433.827-3.638,1.764-8.269,2.756-13.616,1.047-5.568,2.591-13.947,3.969-22.988,1.158-8.545,2.2-17.365,3.087-26.02.882-7.938,1.268-15.987,1.6-23.76l.11-2.7c.276-7.938.551-14.829.386-20.893-.055-4.3-.165-8.1-.221-11.3-3.2,0-7.056,0-11.3-.055h0c-6.56,0-14.443-.5-22.051-.992l-1.488-.11c-7.5-.551-15.27-1.1-23.374-2.26-7.828-1.047-15.876-2.26-23.759-3.583-8.489-1.6-15.821-3.252-20.672-4.355-2.481-.551-4.741-1.1-6.836-1.6-.11,2.095-.276,4.41-.441,6.836-.441,6.229-1.323,13.12-2.315,20.783-1.268,9.592-2.481,17.31-3.914,24.311-1.929,9.7-3.583,17.42-5.237,24.145-1.874,7.111-3.8,14.168-5.9,21.113C181.366,305.676,180.208,309.425,179.216,312.512Z" transform="translate(-152.59 -176.57)" fill="#fff"/>
        </g>
        <path id="Path_37" data-name="Path 37" d="M173.89,186.47s3.969.937,9.923,2.15c5.9,1.1,13.892,2.536,22.106,3.749,8.269,1.323,16.428,2.15,22.657,2.756,6.284.551,10.474.882,10.474.882s-.276,4.245-.661,10.584c-.441,6.339-1.047,15.049-2.205,23.484-1.047,8.545-2.315,17.2-3.418,23.815-1.1,6.5-2.04,10.8-2.04,10.8s-4.355-.606-10.97-1.488c-6.5-.937-15.049-2.205-23.649-4.024-8.545-1.709-16.869-3.583-22.988-5.017-6.229-1.544-10.309-2.756-10.309-2.756s1.047-4.024,2.426-10.143c1.323-6.229,2.922-14.443,4.3-22.492,1.488-7.993,2.481-16.262,3.142-22.271C173.5,190.439,173.89,186.47,173.89,186.47Z" transform="translate(-62.204 -91.983)" fill="#fff"/>
      </g>
      <g id="Group_62" data-name="Group 62" transform="translate(462.125 973.257)">
        <g id="Group_60" data-name="Group 60">
          <path id="Path_38" data-name="Path 38" d="M244.911,505.7l-14.553-11.907c-6.836-5.678-13.671-11.521-20.342-17.365-8.986-7.993-19.129-18.026-26.957-25.854-4.961-4.906-9.978-10.474-14.278-15.215-4.686-5.182-9.316-10.474-13.782-15.766-9.041-10.75-17.365-21.83-24.917-32.139-7.828-11.136-14.388-21.334-19.184-29-4.41-7.166-7.938-13.561-10.529-18.247L89.73,320.586l19.129-10.97c4.465-2.646,10.033-5.9,16.373-10.033,6.836-4.52,15.932-10.694,25.413-17.806,8.545-6.67,17.751-14.057,26.571-22,4.3-3.969,8.545-7.938,12.569-11.907,4.355-4.245,7.938-7.828,11.3-11.577,8.434-9.206,14.223-15.876,18.853-21.72,4.19-5.292,8.159-10.529,12.128-15.987l12.9-17.971,12.955,18.026c3.8,5.237,7.883,10.584,12.073,15.932,4.576,5.788,10.364,12.459,18.8,21.61,3.418,3.8,7,7.387,11.356,11.632,4.024,3.969,8.269,7.938,12.624,11.962,8.765,7.938,18.026,15.325,26.681,22.106,9.371,7,18.467,13.175,25.3,17.751,6.284,4.134,11.852,7.387,16.317,10.033l19.074,10.97-10.584,19.57c-2.591,4.686-6.119,11.08-10.529,18.192-4.851,7.718-11.411,17.916-19.074,28.886-7.718,10.529-16.042,21.554-25.027,32.249-4.52,5.347-9.151,10.584-13.837,15.821-4.576,5.072-9.427,10.419-14.333,15.27-8.269,8.324-18.026,17.916-26.847,25.8-6.67,5.9-13.506,11.742-20.286,17.365ZM117.844,328.579l.827,1.433c2.591,4.741,5.9,10.639,9.978,17.255,4.631,7.387,10.97,17.255,18.412,27.839,7.277,9.868,15.27,20.617,23.925,30.871,4.355,5.072,8.82,10.2,13.4,15.27,4.135,4.576,8.875,9.813,13.506,14.388,7.663,7.663,17.53,17.42,26.075,25.027,6.5,5.733,13.12,11.411,19.79,16.924l1.213.992,1.213-.992c6.615-5.513,13.285-11.191,19.735-16.924,8.49-7.5,18.357-17.31,25.965-24.917,4.575-4.52,9.206-9.592,13.561-14.443,4.52-5.072,9.041-10.2,13.451-15.325,8.545-10.2,16.593-20.893,23.98-30.981,7.277-10.364,13.616-20.286,18.3-27.729,4.079-6.615,7.332-12.514,9.978-17.254l.772-1.433-1.544-.882c-4.686-2.756-10.529-6.174-17.31-10.639-7.111-4.741-16.538-11.136-26.461-18.578-9.151-7.166-18.8-14.829-28.059-23.263-4.575-4.19-8.986-8.379-13.175-12.459-4.631-4.52-8.49-8.379-12.238-12.514-8.71-9.537-14.774-16.538-19.68-22.712-2.922-3.749-5.788-7.442-8.6-11.191-2.811,3.749-5.623,7.442-8.545,11.136-4.961,6.229-11.025,13.23-19.735,22.767-3.749,4.135-7.607,7.993-12.183,12.514-4.19,4.079-8.6,8.269-13.12,12.4-9.371,8.489-18.964,16.152-27.949,23.153-10.033,7.552-19.46,13.947-26.571,18.688-6.781,4.465-12.624,7.883-17.31,10.639Z" transform="translate(-89.73 -180.62)" fill="#fff"/>
        </g>
        <g id="Group_61" data-name="Group 61" transform="translate(45.645 49.504)">
          <path id="Path_39" data-name="Path 39" d="M207.546,417.052l-6.836-5.954c-.331-.276-7.5-6.5-17.751-16.042-9.537-8.6-22.271-21.665-35.777-36.659-6.284-7.056-12.348-14.608-17.2-20.672-5.678-7.056-10.254-13.12-14-18.523-7.607-10.694-12.238-17.751-12.4-18.026l-5.568-8.545,8.379-5.788c.055-.055,7.166-4.961,16.924-12.293,4.686-3.418,10.143-7.773,16.317-13.01,5.237-4.41,11.687-9.978,17.7-15.6a409.781,409.781,0,0,0,29.823-31.146c7.607-8.82,12.238-14.719,12.293-14.774l8.214-10.419,8.214,10.419c.055.055,4.686,5.954,12.183,14.664,7.166,8.6,17.53,19.349,29.934,31.257,5.954,5.623,12.459,11.136,17.64,15.6,6.174,5.237,11.632,9.592,16.207,12.955,9.868,7.387,16.979,12.293,17.034,12.348l8.379,5.788-5.568,8.545c-.22.276-4.8,7.387-12.459,18.136-3.694,5.292-8.269,11.356-13.947,18.412-5.182,6.395-11.025,13.671-17.2,20.617-13.561,15.049-26.35,28.115-35.942,36.824-10.143,9.371-17.31,15.656-17.64,15.932ZM126.621,298.089c1.764,2.591,3.914,5.678,6.395,9.1,3.528,5.072,7.828,10.75,13.175,17.42,4.961,6.174,10.584,13.175,16.483,19.79,13.01,14.443,25.193,26.957,34.344,35.171,4.024,3.749,7.607,7,10.474,9.537,2.811-2.536,6.395-5.733,10.364-9.482,9.206-8.324,21.444-20.838,34.509-35.336,5.788-6.5,11.466-13.561,16.483-19.79,5.347-6.67,9.647-12.348,13.12-17.31,2.481-3.528,4.631-6.615,6.45-9.206-2.591-1.874-5.678-4.19-9.151-6.725-4.906-3.583-10.75-8.269-17.31-13.837-5.4-4.575-12.128-10.309-18.522-16.373a433.308,433.308,0,0,1-31.477-32.911c-1.6-1.874-3.087-3.638-4.465-5.237-1.378,1.6-2.867,3.418-4.52,5.347A419.7,419.7,0,0,1,171.6,260.989c-6.45,6.064-13.175,11.8-18.578,16.428-6.56,5.568-12.4,10.254-17.42,13.892C132.3,293.954,129.212,296.215,126.621,298.089Z" transform="translate(-98.01 -189.6)" fill="#fff"/>
        </g>
        <path id="Path_40" data-name="Path 40" d="M156.418,201.73s10.584,11.8,22.436,23.594c5.9,5.788,12.018,11.246,16.7,15.49,4.8,4.19,7.938,7,7.938,7s-2.7,3.252-6.725,8.1c-4.134,4.851-9.757,11.411-15.656,17.806-11.742,12.4-24.7,24.807-24.7,24.807s-13.01-12.4-24.7-24.807c-5.9-6.339-11.521-12.955-15.656-17.806-4.024-4.851-6.725-8.1-6.725-8.1s3.2-2.811,7.938-7c4.686-4.245,10.86-9.7,16.7-15.49C145.834,213.527,156.418,201.73,156.418,201.73Z" transform="translate(-1.237 -85.358)" fill="#fff"/>
      </g>
      <g id="Group_65" data-name="Group 65" transform="translate(212.512 911.13)">
        <g id="Group_63" data-name="Group 63">
          <path id="Path_41" data-name="Path 41" d="M67.768,432.413l-4.961-17.751c-1.488-5.788-3.638-14.884-6.174-26.406-2.095-9.261-4.245-20.948-6.56-36.769-2.205-13.616-3.418-28.555-4.41-41.51-.606-7.166-.827-14.664-.992-21-.165-6.781-.221-13.4-.221-19.735.165-12.789.882-24.586,1.544-34.619.606-8.434,1.544-15.711,2.205-21l2.922-22,22.161,2.37c5.127.5,11.466,1.1,18.908,1.488,9.1.386,19.79.772,31.036.551,5.568-.165,11.411-.386,17.2-.717,5.458-.331,11.3-.661,17.2-1.378,12.789-1.433,23.319-2.867,33.352-4.906,11.852-2.315,20.672-4.355,27.839-6.45,6.836-1.874,13.23-3.8,19.184-5.733l21.279-7.5-.441,25.468c0,4.631-.055,10.419.331,16.869a385.365,385.365,0,0,0,7.993,61.742c2.867,13.23,5.678,24.145,8.6,33.351,1.654,5.513,3.363,10.75,5.016,15.766,1.323,3.969,2.756,7.607,4.079,11.08l.992,2.591c3.473,8.875,6.395,16.042,8.489,20.672l7.938,17.034-17.144,8.489c-5.182,2.481-12.348,5.623-22.106,9.757l-2.756,1.158c-3.914,1.654-8.159,3.363-12.569,5.017-5.4,1.985-11.135,4.024-17.2,6.064-10.75,3.749-23.208,7.387-39.14,11.466l-10.2,2.536c-3.032.717-5.843,1.268-8.655,1.874l-1.764.386c-6.836,1.378-13.616,2.646-20.287,3.859-12.128,2.15-23.484,3.473-33.572,4.631l-3.418.386c-8.82,1.047-16.317,1.488-22.326,1.819Zm1.268-217.86-.165,1.544c-.662,5.4-1.488,12.073-2.095,19.9-.662,9.7-1.378,21.113-1.488,33.3,0,6.064.055,12.458.22,19.074.165,6.34.386,13.12.937,19.79.992,12.569,2.15,27.012,4.245,39.967,2.315,15.38,4.3,26.626,6.34,35.391,2.591,12.018,4.851,21.169,6.009,25.634l.386,1.378,6.34-.386c5.733-.331,12.9-.772,21.113-1.709l3.473-.386c9.757-1.1,20.783-2.37,32.249-4.465,6.5-1.158,13.12-2.426,19.735-3.749l1.764-.386c2.7-.551,5.347-1.1,8.048-1.709l9.978-2.481c15.215-3.859,27.122-7.387,37.431-10.97,6.009-2.04,11.577-4.024,16.814-5.9,4.134-1.488,8.1-3.142,11.742-4.686l2.756-1.158c8.489-3.583,14.994-6.45,19.68-8.6-2.205-5.017-5.016-11.852-8.379-20.452l-.992-2.591c-1.433-3.749-2.922-7.663-4.355-11.962-1.764-5.182-3.473-10.639-5.182-16.207-3.087-9.757-6.064-21.334-9.041-35.171a402.849,402.849,0,0,1-8.434-65.1c-.331-5.072-.386-9.868-.386-13.947-4.355,1.323-8.765,2.591-13.341,3.859-7.663,2.205-17.034,4.41-29.438,6.836-10.695,2.205-21.72,3.693-35.06,5.182-6.395.772-12.679,1.158-18.412,1.488-6.009.331-12.018.606-17.916.772-11.907.22-22.988-.165-32.469-.551-7.993-.386-14.664-1.047-20.011-1.544Z" transform="translate(-44.45 -169.35)" fill="#fff"/>
        </g>
        <g id="Group_64" data-name="Group 64" transform="translate(34.9 41.896)">
          <path id="Path_42" data-name="Path 42" d="M67.644,359.143l-2.205-8.434c-.11-.386-2.536-9.647-5.127-23.76-1.047-5.623-2.646-14.223-4.079-23.539-1.268-9.151-2.315-18.192-3.2-27.177-.937-8.379-1.323-17.2-1.709-24.972l-.11-2.811c-.276-7.938-.551-15.491-.386-22.216.165-13.12.606-21.555.606-21.885l.5-10.2,10.2.276c.11,0,8.655.22,20.893.055h.055c6.119,0,13.616-.5,20.893-.992l1.488-.11c7.111-.5,14.443-1.047,21.775-2.095,7.773-.992,15.546-2.205,23.208-3.473,5.9-1.158,12.183-2.481,19.515-4.134,9.592-2.15,16.317-4.135,18.137-4.686l6.615-2.04L201.6,185l.11,3.638c0,.055.22,7.663,1.047,19.184.386,5.568,1.213,11.962,2.205,19.68,1.158,9.041,2.315,16.262,3.638,22.712,1.874,9.482,3.473,16.869,5.072,23.318,1.709,6.56,3.638,13.4,5.623,20.176,1.764,6.064,3.308,10.915,4.465,14.112l5.4,15.215-15.1,5.788c-3.638,1.433-8.82,3.252-15.325,5.347-7,2.26-14.333,4.52-21.885,6.725-8.93,2.481-18.137,4.631-26.02,6.45-9.868,2.315-19.515,4.024-26.847,5.237-9.041,1.488-17.144,2.756-24.035,3.528-13.837,1.544-23.318,2.26-23.7,2.315Zm4.245-143.6c-.11,3.142-.165,6.891-.22,11.191-.165,6.229.11,13.065.386,21l.11,2.591c.331,7.828.717,15.876,1.6,23.7.882,8.82,1.929,17.641,3.087,26.351,1.378,8.82,2.922,17.2,3.969,22.712.992,5.4,1.929,10.033,2.756,13.671,3.8-.386,8.6-.827,14.057-1.433,6.45-.717,14.223-1.985,22.988-3.418,6.946-1.158,16.152-2.756,25.468-4.961,7.718-1.764,16.648-3.859,25.027-6.174,7.166-2.095,14.333-4.3,21.113-6.5,4.079-1.323,7.5-2.481,10.364-3.473-.992-3.087-2.15-6.836-3.418-11.08-2.095-7-4.024-14.057-5.843-20.948-1.709-6.946-3.363-14.608-5.292-24.366-1.433-6.891-2.646-14.609-3.914-24.2-1.047-8.049-1.819-14.719-2.315-20.783-.165-2.481-.331-4.8-.441-6.891-2.095.5-4.41,1.047-6.891,1.6-7.5,1.709-14,3.087-20.4,4.3-8.1,1.378-16.152,2.591-24.09,3.638-7.938,1.1-15.656,1.709-23.1,2.205l-1.6.11c-7.663.5-15.546.992-22.161.992h-.11C78.89,215.538,75.087,215.538,71.889,215.538Z" transform="translate(-50.781 -176.95)" fill="#fff"/>
        </g>
        <path id="Path_43" data-name="Path 43" d="M124.4,186.47s.441,4.024,1.047,10.033c.717,6.064,1.654,14.278,3.142,22.271,1.378,8.1,3.032,16.318,4.3,22.492,1.378,6.119,2.426,10.143,2.426,10.143s-4.079,1.158-10.309,2.756c-6.119,1.433-14.443,3.308-22.988,5.017-8.6,1.819-17.089,3.087-23.649,4.024-6.56.882-10.97,1.488-10.97,1.488s-.882-4.3-2.04-10.8c-1.047-6.56-2.315-15.27-3.418-23.815-1.158-8.434-1.764-17.144-2.205-23.484-.386-6.34-.661-10.584-.661-10.584s4.19-.386,10.474-.882c6.284-.606,14.388-1.378,22.657-2.756,8.214-1.268,16.207-2.646,22.106-3.749C120.436,187.407,124.4,186.47,124.4,186.47Z" transform="translate(21.57 -92.094)" fill="#fff"/>
      </g>
      <g id="Group_68" data-name="Group 68" transform="translate(0.055 645.09)">
        <g id="Group_66" data-name="Group 66">
          <path id="Path_44" data-name="Path 44" d="M230,415.961l-18.853-3.142c-4.851-.937-12.624-2.536-23.594-5.072-8.986-1.985-19.68-4.961-33.462-9.206-12.844-3.8-26.02-8.82-38.368-13.671-6.064-2.315-12.459-5.072-19.625-8.324-6.284-2.867-12.514-5.788-18.633-8.71-11.742-5.733-22.271-11.687-31.587-16.924l-1.323-.717c-7.607-4.245-13.837-8.269-18.853-11.466L5.91,325.885l6.395-17.31c3.473-8.6,6.946-16.924,10.529-25.082,3.749-8.875,8.93-19.625,16.317-33.682,6.5-12.844,14.553-26.13,20.838-36.273a504.611,504.611,0,0,1,44.763-60.8c6.725-8.1,13.12-14.719,16.152-17.916l13.285-13.726,14,12.844c4.465,4.079,9.978,8.986,16.814,14.388a415,415,0,0,0,53.914,37.321c8.214,4.686,19.019,10.695,29.713,15.546,10.86,5.017,19.129,8.545,26.3,11.136,6.395,2.37,12.679,4.576,18.853,6.56l21.665,6.339-15.491,20.617c-2.7,3.693-6.064,8.269-9.482,13.616-4.079,6.395-9.7,15.16-14.829,24.531-2.481,4.631-5.072,9.482-7.607,14.608-2.922,5.678-5.292,10.695-7.277,15.38-3.969,9.151-8.986,21.058-12.679,32.139-4.079,11.907-7.111,21.83-9.041,29.6-2.867,10.97-4.576,18.522-5.347,22ZM31.323,317.4,37,321.034c4.8,3.087,10.75,6.891,17.806,10.86l1.323.772c9.041,5.127,19.349,10.915,30.485,16.317,5.9,2.867,12.018,5.733,18.192,8.489,6.781,3.087,12.789,5.678,18.467,7.883,11.962,4.686,24.7,9.537,36.88,13.12,13.4,4.134,23.539,6.946,32.028,8.82,7.773,1.819,15.16,3.418,21.169,4.576,1.378-6.284,3.2-13.782,5.237-21.444,2.095-8.324,5.182-18.523,9.482-31.091,3.859-11.8,9.151-24.256,13.285-33.737,2.15-5.016,4.686-10.474,7.773-16.538,2.646-5.237,5.292-10.364,7.938-15.16,5.513-10.088,11.356-19.184,15.6-25.8,2.811-4.355,5.568-8.324,7.938-11.577-4.355-1.488-8.71-3.032-13.01-4.631-7.663-2.756-16.483-6.5-27.839-11.742-11.411-5.127-22.767-11.466-31.367-16.373a436.684,436.684,0,0,1-56.67-39.195c-6.67-5.292-12.183-10.143-16.758-14.278-4.355,4.52-9.1,9.647-14.333,15.932a492.216,492.216,0,0,0-42.943,58.324c-6.064,9.757-13.782,22.492-20.011,34.73-7.166,13.727-12.128,23.98-15.711,32.414-3.528,8.048-6.946,16.207-10.2,24.311Z" transform="translate(-5.91 -121.09)" fill="#fff"/>
        </g>
        <g id="Group_67" data-name="Group 67" transform="translate(45.81 47.023)">
          <path id="Path_45" data-name="Path 45" d="M166.589,338l-9.923-2.37c-.386-.11-9.041-2.15-21.554-6.339-7-2.26-14.278-4.741-21.665-7.332q-12.734-4.879-24.862-10.033c-8.986-3.749-17.751-8.049-24.752-11.521l-2.481-1.268c-7-3.528-13.561-6.836-19.184-10.088-12.018-6.836-20.176-11.8-20.507-12.018l-7.442-4.576,3.2-8.159c.386-.937,3.859-9.757,9.813-22.216,3.693-7.828,7.111-14.829,10.474-21.444,4.465-8.269,8.93-16.207,13.4-23.925,4.52-7.993,9.757-15.932,14.333-22.767,4.631-6.891,8.986-13.341,13.175-18.908,7.993-10.584,13.341-17.2,13.561-17.475l6.45-7.938,8.1,6.229c.055.055,6.836,5.292,16.758,12.348,4.851,3.418,11.08,7.442,17.53,11.521,6.229,3.914,12.955,8.1,20.121,11.907,6.946,3.8,13.892,7.387,20.783,10.8,5.623,2.646,11.8,5.4,18.192,8.049,9.812,4.245,16.758,6.615,17.475,6.836l8.434,2.867-1.819,11.08-1.323,1.929c-.055.055-4.3,6.284-10.419,16.152-2.867,4.575-5.733,9.812-9.1,15.876l-.717,1.323c-3.528,6.5-7.222,13.506-10.364,20.507-3.363,7.277-6.56,14.608-9.647,22-2.37,6.119-4.851,12.789-7.222,19.515-4.134,11.521-6.284,19.46-6.284,19.515ZM40.35,263.8c3.252,1.929,7.442,4.355,12.238,7.111,5.127,2.977,11.466,6.174,18.192,9.537l2.426,1.213c6.67,3.308,15.05,7.442,23.484,10.97q11.99,5.127,24.035,9.7c6.891,2.481,14,4.851,20.838,7.056,3.914,1.323,7.5,2.37,10.419,3.252.992-3.142,2.26-6.836,3.749-11.025,2.426-6.891,4.961-13.726,7.5-20.342,3.252-7.828,6.56-15.435,10.033-22.877,3.418-7.552,7.5-15.215,11.025-21.83l.772-1.378c3.363-6.119,6.5-11.852,9.7-16.924,1.268-2.095,2.481-3.969,3.583-5.733-1.985-.827-4.135-1.709-6.45-2.7-6.56-2.756-12.955-5.623-19.074-8.434-7.277-3.583-14.5-7.332-21.61-11.191-7.663-4.079-14.774-8.489-21.389-12.624-7.056-4.465-13.23-8.434-18.522-12.183-3.473-2.481-6.56-4.741-9.151-6.615-1.929,2.481-4.245,5.513-6.836,8.93-3.859,5.127-8.048,11.356-12.514,17.971-4.3,6.5-9.316,14.057-13.616,21.555-4.41,7.552-8.765,15.325-13.01,23.153-3.142,6.229-6.5,13.065-10.143,20.728C43.768,256.025,41.838,260.38,40.35,263.8Z" transform="translate(-14.22 -129.62)" fill="#fff"/>
        </g>
        <path id="Path_46" data-name="Path 46" d="M117.2,171.665s-1.985,3.473-5.017,8.71c-2.977,5.292-7.056,12.569-10.529,19.846-3.583,7.332-7.111,14.939-9.7,20.728-1.323,2.922-2.26,5.292-2.977,7-.661,1.709-1.047,2.646-1.047,2.646s-.992-.386-2.756-1.047c-1.709-.661-4.3-1.6-7.166-2.811-5.843-2.426-13.671-5.788-21.61-9.427-8.048-3.583-15.6-7.607-21.444-10.639-5.843-3.142-9.757-5.237-9.757-5.237s1.764-4.024,4.686-9.923c3.032-5.954,7.111-13.727,11.246-21.279,4.024-7.5,8.6-14.884,12.018-20.342,3.418-5.347,5.678-8.93,5.678-8.93s3.583,2.15,8.986,5.458c5.4,3.2,12.459,7.332,19.956,11.136,7.387,3.8,14.664,7.387,20.121,9.923C113.447,170.122,117.2,171.665,117.2,171.665Z" transform="translate(81.094 -31.424)" fill="#fff"/>
      </g>
      <g id="Group_71" data-name="Group 71" transform="translate(0 358.432)">
        <g id="Group_69" data-name="Group 69">
          <path id="Path_47" data-name="Path 47" d="M134.179,364.016l-13.23-13.671c-4.686-4.851-10.2-10.75-16.317-18.082-31.973-36.935-63.4-87.1-81.863-130.76-3.473-7.883-6.946-16.207-10.364-24.7l-6.5-17.53,15.546-10.143C87.432,107.679,142.283,85.463,210.97,72.287l19.074-3.2,3.638,18.578c.717,3.308,2.426,10.915,5.237,21.665,1.985,7.883,5.016,17.806,9.041,29.6,3.693,11.191,8.71,23.1,12.679,32.194,2.04,4.741,4.41,9.757,7.277,15.38,2.591,5.127,5.127,10.033,7.663,14.664,5.127,9.371,10.75,18.082,14.829,24.476,3.418,5.4,6.836,9.978,9.537,13.671l15.435,20.507-21.94,6.5c-54.685,17.861-102.315,45.645-145.258,84.84ZM31.368,167.656l.606,1.654c3.2,7.993,6.615,16.1,10.033,23.925,17.751,41.9,47.85,89.911,78.61,125.468,5.4,6.45,10.254,11.687,14.443,16.1,43.274-39.195,90.959-67.475,145.589-86.273-2.37-3.252-5.127-7.166-7.938-11.577-4.245-6.615-10.088-15.711-15.6-25.744q-3.969-7.277-7.938-15.215c-3.032-6.009-5.623-11.466-7.828-16.593-4.134-9.482-9.372-21.94-13.285-33.793-4.245-12.4-7.387-22.6-9.482-31.091-1.985-7.607-3.8-15.16-5.182-21.389-65.1,12.624-117.64,34.013-180.7,73.649Z" transform="translate(-5.9 -69.09)" fill="#fff"/>
        </g>
        <g id="Group_70" data-name="Group 70" transform="translate(45.865 39.526)">
          <path id="Path_48" data-name="Path 48" d="M110.746,299.412,92.169,276.59c-.221-.276-5.568-6.836-13.561-17.42C40.9,208.894,18.354,152.335,17.417,149.964l-3.2-8.159,7.5-4.576c51.488-31.643,104.906-51.323,134.95-58.6l9.923-2.37,2.646,9.868c0,.055,2.15,7.993,6.229,19.46,2.37,6.781,4.851,13.451,7.332,19.79,2.922,7,6.229,14.608,9.482,21.665,3.142,7.056,6.891,14.057,10.474,20.672l.662,1.268c3.308,6.064,6.174,11.3,9.041,15.821,6.119,9.868,10.364,16.152,10.419,16.207l7.828,11.466-13.12,4.41c-36.88,12.348-94.156,46.968-106.78,57.221v25.3ZM40.35,150.35c7.552,17.31,27.177,59.1,55.016,96.2,2.315,3.087,4.41,5.788,6.229,8.159,6.781-5.017,17.53-11.907,34.454-21.72,11.466-6.67,37.982-21.5,62.293-31.367-1.1-1.764-2.315-3.638-3.583-5.733-3.142-5.017-6.284-10.75-9.647-16.869l-.717-1.323c-3.749-7-7.718-14.443-11.136-22-3.363-7.332-6.725-14.939-9.868-22.547-2.646-6.836-5.182-13.671-7.607-20.617-1.488-4.19-2.756-7.938-3.749-11.025C124.142,109.336,82.191,125.708,40.35,150.35Z" transform="translate(-14.22 -76.26)" fill="#fff"/>
        </g>
        <path id="Path_49" data-name="Path 49" d="M117.2,145.471s-3.8,1.544-9.316,4.079c-5.4,2.536-12.734,6.119-20.121,9.923-7.5,3.749-14.553,7.883-19.956,11.136s-8.986,5.458-8.986,5.458-2.26-3.583-5.678-8.931c-3.418-5.4-7.993-12.789-12.018-20.342-4.134-7.552-8.214-15.325-11.246-21.279-2.922-5.9-4.686-9.923-4.686-9.923s3.914-2.095,9.757-5.237c5.9-3.087,13.451-7.056,21.444-10.639,7.938-3.638,15.766-7,21.61-9.427,2.867-1.213,5.458-2.15,7.166-2.811,1.764-.662,2.756-1.047,2.756-1.047s.386.992,1.047,2.646c.717,1.709,1.6,4.079,2.977,7,2.591,5.788,6.119,13.4,9.7,20.728,3.473,7.332,7.607,14.609,10.529,19.9C115.211,142,117.2,145.471,117.2,145.471Z" transform="translate(81.149 9.159)" fill="#fff"/>
      </g>
      <g id="Group_74" data-name="Group 74" transform="translate(212.457 124.31)">
        <g id="Group_72" data-name="Group 72">
          <path id="Path_50" data-name="Path 50" d="M259.1,289.738l-21.5-7.607c-5.788-1.874-12.183-3.749-18.8-5.623-7.277-2.095-16.152-4.134-27.894-6.45-10.143-2.095-20.672-3.473-33.352-4.906-5.954-.717-11.8-1.1-17.2-1.378-5.843-.331-11.632-.551-17.31-.717-11.025-.22-21.389.165-30.981.551-7.442.331-13.837.992-18.963,1.488l-22.051,2.37-2.922-22.051c-.662-5.292-1.544-12.569-2.15-20.893-.662-10.143-1.433-21.885-1.544-34.619,0-6.45.055-13.01.221-19.845.165-6.67.386-13.837.992-21.058.992-12.844,2.26-27.784,4.465-41.565,2.426-16.042,4.465-27.4,6.615-36.769,2.481-11.3,4.686-20.4,6.064-26.02L67.869,26.62l23.208,1.213c6.009.331,13.506.772,22.326,1.819l3.693.441c9.978,1.158,21.279,2.426,33.3,4.631,6.615,1.158,13.4,2.481,20.231,3.859l1.764.386c2.867.606,5.678,1.158,8.545,1.819l10.309,2.536c15.932,4.079,28.445,7.718,39.305,11.521,5.954,1.985,11.687,4.024,17.089,6.009,4.52,1.654,8.875,3.473,12.844,5.127l2.426.992c9.813,4.134,16.979,7.277,22.051,9.7l17.255,8.545-7.993,17.144c-2.04,4.52-4.961,11.687-8.49,20.617l-.937,2.536c-1.323,3.473-2.756,7.111-4.079,11.08-1.654,5.017-3.363,10.254-5.017,15.656-2.977,9.316-5.733,20.231-8.6,33.462a386.585,386.585,0,0,0-7.993,61.576c-.441,6.67-.386,12.514-.331,17.144ZM116.49,241.944c2.315,0,4.631,0,7,.055,6.009.165,12.018.441,18.026.772,5.788.331,12.018.717,18.467,1.488,13.23,1.488,24.311,2.977,35.06,5.182,12.238,2.426,21.665,4.575,29.438,6.836,4.465,1.213,8.93,2.536,13.23,3.859,0-4.079.055-8.875.386-14.112a403.834,403.834,0,0,1,8.434-64.884c2.977-13.837,5.954-25.413,9.1-35.281,1.654-5.458,3.418-10.915,5.127-16.1,1.433-4.3,2.922-8.214,4.355-11.962l.992-2.536c3.418-8.71,6.229-15.6,8.379-20.562-4.576-2.15-11.08-5.016-19.735-8.655l-2.426-.992c-3.749-1.544-7.773-3.252-12.018-4.8-5.182-1.874-10.8-3.859-16.7-5.843-10.364-3.638-22.326-7.111-37.6-10.97l-10.088-2.481c-2.536-.551-5.237-1.1-7.938-1.709l-1.764-.386c-6.615-1.323-13.23-2.591-19.68-3.749-11.411-2.04-22.326-3.308-32.028-4.41l-3.749-.441c-8.269-.992-15.38-1.378-21.113-1.709l-6.34-.386-.441,1.654c-1.323,5.182-3.473,14.057-5.9,25.248-2.04,8.82-4.024,20.066-6.34,35.446-2.095,13.12-3.308,27.508-4.245,40.022-.551,6.725-.772,13.506-.937,19.846-.165,6.615-.221,13.065-.221,19.184.11,12.073.827,23.484,1.488,33.3.551,7.718,1.378,14.443,2.095,19.79l.221,1.6,1.874-.165c5.4-.551,12.073-1.213,20.066-1.544C98.74,242.275,107.339,241.944,116.49,241.944Z" transform="translate(-44.44 -26.62)" fill="#fff"/>
        </g>
        <g id="Group_73" data-name="Group 73" transform="translate(34.955 38.699)">
          <path id="Path_51" data-name="Path 51" d="M201.326,218.038,188.151,213.9c-.055,0-7.332-2.315-18.137-4.686-7.387-1.709-13.616-3.032-19.735-4.19C143,203.76,135.229,202.6,127.4,201.61c-7.5-1.047-14.884-1.6-22.051-2.095l-1.433-.11c-7.222-.5-14.829-.937-20.728-.937-12.348-.165-20.948.055-21,.055l-10.2.276-.551-10.2c0-.331-.441-8.82-.606-22-.165-6.615.11-14.112.386-22.106l.11-2.867c.331-7.718.772-16.538,1.709-25.027.882-8.82,1.929-17.916,3.142-26.847,1.488-9.592,3.087-18.192,4.134-23.815,2.04-11.025,3.969-19.074,4.741-22.326V33.64l11.3.882c.386.055,9.868.772,23.7,2.315,6.946.772,14.664,2.04,24.035,3.528,10.75,1.764,19.074,3.363,26.957,5.237,7.277,1.654,16.814,3.914,25.8,6.395,7.332,2.15,14.719,4.41,22.051,6.781,6.56,2.095,11.742,3.914,15.38,5.347l14.994,5.733-5.347,15.16c-1.158,3.252-2.7,8.1-4.52,14.168-1.764,6.009-3.749,12.955-5.678,20.342-1.544,6.284-3.142,13.671-5.016,23.1-1.323,6.5-2.481,13.726-3.693,22.822-.937,7.387-1.764,13.947-2.15,19.625-.827,11.577-1.047,19.129-1.047,19.184ZM83.245,177.465c6.45,0,14.388.5,22.051.992l1.544.11c7.5.551,15.27,1.1,23.374,2.26,7.993,1.047,16.042,2.26,23.759,3.583,6.56,1.268,13.065,2.646,20.672,4.355,2.481.551,4.741,1.1,6.836,1.6.11-2.095.276-4.41.441-6.891.441-6.229,1.323-13.12,2.315-20.783,1.268-9.647,2.481-17.365,3.914-24.311,1.929-9.647,3.583-17.365,5.237-24.145,1.819-6.946,3.749-14,5.9-21.113,1.268-4.245,2.426-7.993,3.418-11.08-2.811-.992-6.284-2.205-10.309-3.473-7.111-2.315-14.278-4.52-21.279-6.56-8.434-2.315-17.7-4.52-24.862-6.119-7.442-1.764-15.27-3.308-25.579-4.961-9.1-1.488-16.538-2.7-22.988-3.418-5.458-.606-10.254-1.1-14.057-1.433-.827,3.638-1.764,8.269-2.756,13.616-1.047,5.568-2.591,13.892-4.024,22.988-1.158,8.379-2.205,17.42-3.087,26.02-.882,7.938-1.268,15.987-1.6,23.76l-.11,2.7c-.276,7.938-.551,14.829-.386,20.893.055,4.3.165,8.1.22,11.3,3.253,0,7.056.055,11.356.11Z" transform="translate(-50.781 -33.64)" fill="#fff"/>
        </g>
        <path id="Path_52" data-name="Path 52" d="M124.269,121.189s-3.969-.937-9.923-2.15c-5.9-1.1-13.892-2.536-22.106-3.749-8.269-1.323-16.428-2.15-22.657-2.756-6.284-.551-10.474-.882-10.474-.882s.276-4.245.662-10.529c.441-6.34,1.047-15.05,2.205-23.484,1.047-8.545,2.315-17.2,3.418-23.815,1.1-6.5,2.04-10.8,2.04-10.8s4.355.606,10.97,1.488c6.5.937,15.05,2.205,23.649,4.024,8.545,1.709,16.869,3.583,22.988,5.017,6.229,1.544,10.309,2.756,10.309,2.756s-1.047,4.024-2.426,10.143c-1.323,6.229-2.922,14.443-4.3,22.492-1.488,7.993-2.426,16.207-3.142,22.271C124.655,117.165,124.269,121.189,124.269,121.189Z" transform="translate(21.76 47.387)" fill="#fff"/>
      </g>
      <g id="Group_77" data-name="Group 77" transform="translate(462.015)">
        <g id="Group_75" data-name="Group 75">
          <path id="Path_53" data-name="Path 53" d="M244.946,329.261l-12.955-18.081c-3.8-5.237-7.883-10.639-12.073-15.932-4.52-5.733-10.364-12.4-18.8-21.61-3.473-3.8-7.056-7.387-11.356-11.632-4.024-3.969-8.269-7.938-12.624-11.962-8.655-7.883-17.971-15.27-26.681-22.106-9.371-7.056-18.467-13.175-25.3-17.751-6.284-4.134-11.852-7.387-16.373-10.033L89.71,189.185l10.584-19.515c2.591-4.686,6.119-11.08,10.529-18.247,4.851-7.718,11.356-17.916,19.074-28.886,7.718-10.474,15.987-21.554,25.027-32.249,4.52-5.347,9.151-10.584,13.837-15.821,4.576-5.072,9.427-10.419,14.333-15.27,7.773-7.773,17.916-17.806,26.847-25.8,6.67-5.9,13.506-11.742,20.287-17.365L244.781,4.07l14.553,11.962c6.836,5.678,13.671,11.521,20.342,17.42,9.041,8.048,19.129,18.026,26.957,25.854,4.906,4.851,9.757,10.2,14.278,15.215C325.6,79.7,330.227,85,334.692,90.288c9.041,10.75,17.365,21.83,24.917,32.139,7.828,11.136,14.388,21.334,19.184,29,4.41,7.166,7.938,13.561,10.529,18.247l10.639,19.625-19.074,10.97c-4.465,2.646-10.088,5.9-16.373,10.033-6.836,4.52-15.932,10.695-25.413,17.806-8.545,6.67-17.806,14.112-26.571,22-4.3,3.969-8.545,7.993-12.569,11.907-4.3,4.19-7.883,7.773-11.3,11.577-8.434,9.206-14.223,15.876-18.853,21.72-4.134,5.237-8.1,10.474-12.128,15.987ZM117.935,181.191l1.488.882c4.686,2.756,10.529,6.174,17.31,10.639,6.56,4.355,16.373,11.025,26.461,18.578,9.206,7.222,18.853,14.884,28.059,23.263,4.575,4.19,8.986,8.379,13.175,12.459,4.631,4.465,8.434,8.324,12.238,12.514,8.71,9.537,14.829,16.593,19.68,22.712,2.922,3.693,5.788,7.442,8.6,11.191,2.811-3.749,5.623-7.442,8.545-11.136,4.961-6.229,11.025-13.23,19.79-22.822,3.969-4.41,8.214-8.6,12.183-12.459,4.19-4.079,8.6-8.269,13.12-12.4,9.316-8.434,18.908-16.1,27.949-23.153,10.088-7.552,19.515-13.947,26.571-18.633,6.836-4.465,12.679-7.883,17.365-10.639l1.544-.882-.827-1.433c-2.591-4.741-5.843-10.639-9.978-17.255-4.631-7.387-10.97-17.255-18.412-27.839-7.277-9.868-15.27-20.617-23.925-30.871-4.355-5.072-8.82-10.2-13.4-15.27-4.3-4.8-8.93-9.868-13.506-14.388-7.663-7.663-17.475-17.42-26.075-25.027-6.5-5.733-13.175-11.411-19.79-16.924l-1.213-.992-1.213.992c-6.615,5.458-13.285,11.191-19.735,16.924-8.489,7.552-18.357,17.31-25.965,24.972-4.576,4.52-9.206,9.592-13.561,14.443-4.52,5.072-9.041,10.2-13.451,15.325-8.6,10.2-16.593,20.948-23.98,30.981-7.332,10.419-13.671,20.287-18.3,27.729-4.079,6.615-7.387,12.569-9.978,17.31Z" transform="translate(-89.71 -4.07)" fill="#fff"/>
        </g>
        <g id="Group_76" data-name="Group 76" transform="translate(45.645 48.125)">
          <path id="Path_54" data-name="Path 54" d="M207.581,240.307l-8.214-10.419c-.055-.055-4.686-5.954-12.183-14.664a412.915,412.915,0,0,0-29.934-31.257c-5.9-5.568-12.128-10.86-17.641-15.546-6.174-5.237-11.632-9.647-16.207-12.955-9.868-7.387-16.979-12.293-17.034-12.348l-8.379-5.788,5.568-8.655c.221-.276,4.8-7.387,12.459-18.137,3.693-5.292,8.379-11.521,13.947-18.412,5.127-6.395,10.97-13.616,17.144-20.617,13.616-15.1,26.35-28.114,35.942-36.824,10.143-9.427,17.31-15.656,17.641-15.932l6.836-5.954,6.891,5.954c.331.276,7.5,6.5,17.751,16.042,9.537,8.6,22.271,21.61,35.777,36.659,6.229,7,12.073,14.278,17.2,20.672,5.568,6.891,10.254,13.12,14,18.522,7.607,10.695,12.238,17.751,12.4,18.026l5.568,8.545-8.379,5.788c-.055.055-7.167,4.961-16.924,12.293-4.631,3.363-10.088,7.773-16.317,13.065-5.513,4.686-11.742,9.978-17.7,15.6a409.742,409.742,0,0,0-29.823,31.146c-7.607,8.82-12.238,14.719-12.293,14.774ZM126.711,131.763c2.591,1.874,5.678,4.134,9.151,6.725,4.906,3.583,10.75,8.269,17.31,13.837,5.733,4.851,12.183,10.364,18.522,16.373a432.192,432.192,0,0,1,31.477,32.91c1.6,1.874,3.087,3.638,4.41,5.237,1.378-1.6,2.867-3.418,4.52-5.347a429.77,429.77,0,0,1,31.367-32.745c6.395-6.064,12.844-11.521,18.578-16.428,6.615-5.623,12.459-10.309,17.42-13.892,3.418-2.536,6.45-4.8,9.041-6.67-1.764-2.591-3.914-5.678-6.395-9.1-3.528-5.072-7.938-10.915-13.175-17.42-5.017-6.229-10.639-13.23-16.483-19.846-13.01-14.443-25.248-26.957-34.344-35.171-4.024-3.749-7.607-7-10.474-9.537-2.812,2.536-6.34,5.733-10.364,9.482-9.206,8.324-21.389,20.783-34.509,35.336-5.843,6.56-11.466,13.561-16.483,19.79-5.237,6.5-9.7,12.348-13.12,17.365C130.68,126.085,128.53,129.172,126.711,131.763Z" transform="translate(-97.99 -12.8)" fill="#fff"/>
        </g>
        <path id="Path_55" data-name="Path 55" d="M156.408,121.092s-10.584-11.8-22.436-23.594c-5.9-5.788-12.018-11.246-16.7-15.491-4.8-4.19-7.938-6.946-7.938-6.946s2.7-3.252,6.725-8.1c4.079-4.851,9.757-11.411,15.6-17.751,11.742-12.4,24.7-24.807,24.7-24.807s13.01,12.4,24.752,24.807c5.9,6.34,11.521,12.955,15.656,17.751,4.024,4.851,6.725,8.1,6.725,8.1s-3.2,2.811-7.938,6.946c-4.741,4.245-10.86,9.7-16.7,15.491C166.992,109.24,156.408,121.092,156.408,121.092Z" transform="translate(-1.172 87.672)" fill="#fff"/>
      </g>
      <g id="Group_80" data-name="Group 80" transform="translate(764.383 124.2)">
        <g id="Group_78" data-name="Group 78">
          <path id="Path_56" data-name="Path 56" d="M187.614,289.829,188,264.36c0-4.631.055-10.419-.331-16.869a385.368,385.368,0,0,0-7.993-61.742c-2.867-13.23-5.678-24.145-8.6-33.352-1.654-5.513-3.363-10.75-5.017-15.766-1.323-3.969-2.756-7.663-4.134-11.191l-.937-2.481c-3.418-8.82-6.395-15.987-8.489-20.672L144.56,85.31,161.7,76.765c5.127-2.481,12.348-5.623,22.051-9.757l2.536-1.047c3.969-1.654,8.269-3.418,12.789-5.072,5.4-1.985,11.136-4.024,17.2-6.064,10.75-3.749,23.208-7.387,39.14-11.466l10.2-2.536c3.032-.717,5.843-1.268,8.655-1.874l1.819-.386c6.836-1.378,13.616-2.7,20.286-3.859,12.018-2.15,23.318-3.473,33.3-4.631l3.693-.441c8.82-1.047,16.318-1.488,22.326-1.819L378.9,26.6l4.961,17.751c1.213,4.8,3.528,14.168,6.174,26.406,2.095,9.206,4.19,20.893,6.56,36.769,2.205,13.616,3.418,28.555,4.465,41.51.606,7.056.827,14.278.992,20.948.165,6.781.22,13.4.22,19.735-.11,12.9-.882,24.642-1.544,34.619-.606,8.434-1.543,15.711-2.2,21l-2.922,22-22.051-2.37c-5.127-.5-11.521-1.158-19.019-1.488-9.537-.386-19.846-.772-31.036-.551-5.568.165-11.411.386-17.2.717-5.458.331-11.3.661-17.2,1.378-12.734,1.433-23.263,2.811-33.351,4.906-11.852,2.315-20.672,4.355-27.839,6.45-8.6,2.37-15.16,4.41-19.129,5.733ZM172.178,94.9c2.205,5.072,5.072,12.073,8.379,20.452l.937,2.481c1.433,3.8,2.977,7.718,4.41,12.018,1.764,5.182,3.473,10.639,5.182,16.207,3.087,9.757,6.064,21.334,9.041,35.171a403.089,403.089,0,0,1,8.434,65.049c.331,5.072.386,9.868.386,13.947,3.749-1.158,8.214-2.481,13.341-3.914,7.663-2.205,17.089-4.41,29.437-6.836,10.75-2.205,21.775-3.693,35.06-5.182,6.395-.772,12.624-1.158,18.412-1.488,6.009-.331,12.018-.606,17.916-.772,11.8-.221,22.933.165,32.414.551,8.1.386,14.774,1.047,20.176,1.544l1.929.165.22-1.544c.661-5.4,1.489-12.073,2.095-19.9.662-9.647,1.378-21.058,1.488-33.3,0-6.064-.055-12.514-.22-19.129-.165-6.395-.386-13.23-.937-19.79-.992-12.569-2.2-27.012-4.245-39.967-2.315-15.435-4.3-26.681-6.34-35.391-2.646-12.073-4.906-21.224-6.009-25.634l-.386-1.378-6.34.386c-5.733.331-12.9.772-21.113,1.709L332.1,50.8c-9.647,1.1-20.617,2.37-31.973,4.41-6.5,1.158-13.12,2.426-19.735,3.749l-1.819.386c-2.646.551-5.347,1.1-7.993,1.709L260.6,63.535c-15.215,3.859-27.122,7.387-37.431,10.915-6.009,2.04-11.577,3.969-16.814,5.9-4.19,1.544-8.214,3.2-11.962,4.741l-2.536,1.047C183.314,89.885,176.864,92.7,172.178,94.9Z" transform="translate(-144.56 -26.6)" fill="#fff"/>
        </g>
        <g id="Group_79" data-name="Group 79" transform="translate(44.377 38.919)">
          <path id="Path_57" data-name="Path 57" d="M180.449,217.948l-.441-13.837c0-.055-.22-7.607-1.047-19.184-.441-5.678-1.213-12.238-2.205-19.68-1.158-9.041-2.315-16.262-3.638-22.712-1.874-9.592-3.528-16.979-5.072-23.318-1.709-6.56-3.638-13.4-5.623-20.176-1.764-5.954-3.363-10.915-4.465-14.112L152.61,69.713l15.1-5.788c3.583-1.433,8.765-3.2,15.325-5.347,7.166-2.315,14.5-4.575,21.885-6.725,9.041-2.481,18.633-4.741,25.965-6.45,9.923-2.37,19.57-4.024,26.847-5.237,8.269-1.323,16.758-2.7,24.035-3.528,13.837-1.544,23.318-2.26,23.7-2.315l8.71-.662,2.205,8.434c.11.386,2.536,9.647,5.127,23.76,1.047,5.623,2.646,14.223,4.079,23.539,1.268,9.206,2.315,18.3,3.2,27.177.937,8.379,1.323,17.144,1.709,24.917l.11,2.867c.276,7.938.551,15.435.386,22.216-.165,13.12-.606,21.554-.606,21.885l-.551,10.2-10.2-.276c-.11,0-8.655-.221-20.893-.055-6.009,0-13.616.5-20.948.992l-1.378.11c-7.166.5-14.553,1.047-21.94,2.095-7.773.992-15.546,2.205-23.153,3.473-5.9,1.158-12.348,2.481-19.46,4.134-10.86,2.426-18.137,4.686-18.192,4.741ZM179.126,82.061c.992,3.087,2.205,6.836,3.418,11.08,2.04,6.946,4.024,14,5.843,20.948,1.709,6.836,3.363,14.5,5.292,24.366,1.433,6.891,2.646,14.609,3.914,24.2.992,7.718,1.819,14.609,2.315,20.783.165,2.481.331,4.8.441,6.891,2.095-.5,4.41-1.047,6.891-1.6,7.332-1.709,14-3.087,20.4-4.3,8.1-1.378,16.152-2.591,24.09-3.638,7.993-1.1,15.766-1.709,23.263-2.26l1.433-.11c7.773-.5,15.711-.992,22.271-.992,4.245-.055,8.049-.055,11.191-.055.11-3.142.165-6.891.221-11.191.165-6.229-.11-13.065-.386-21l-.11-2.7c-.331-7.773-.717-15.821-1.6-23.649-.882-8.765-1.929-17.585-3.087-26.35-1.378-8.82-2.922-17.2-3.969-22.712-.992-5.4-1.929-10.033-2.756-13.671-3.8.386-8.6.827-14.057,1.433-6.725.772-14.994,2.095-22.988,3.418-6.946,1.158-16.1,2.756-25.468,4.961-7.222,1.654-16.483,3.859-25.027,6.174-7,2.04-14.168,4.245-21.113,6.5Q183.343,80.49,179.126,82.061Z" transform="translate(-152.61 -33.66)" fill="#fff"/>
        </g>
        <path id="Path_58" data-name="Path 58" d="M173.755,121.234s-.441-4.024-1.047-10.033c-.661-6.064-1.654-14.278-3.142-22.271-1.378-8.048-2.977-16.317-4.3-22.492C163.887,60.32,162.84,56.3,162.84,56.3s4.079-1.158,10.309-2.756c6.119-1.433,14.443-3.308,22.988-5.017,8.6-1.819,17.089-3.087,23.649-4.024,6.56-.882,10.97-1.488,10.97-1.488s.882,4.3,2.04,10.8c1.047,6.56,2.315,15.27,3.418,23.815,1.158,8.434,1.764,17.144,2.205,23.484.386,6.34.661,10.529.661,10.529s-4.19.386-10.474.882c-6.284.606-14.388,1.378-22.657,2.756-8.214,1.268-16.207,2.646-22.106,3.749C177.724,120.3,173.755,121.234,173.755,121.234Z" transform="translate(-62.069 47.452)" fill="#fff"/>
      </g>
      <g id="Group_83" data-name="Group 83" transform="translate(925.022 358.267)">
        <g id="Group_81" data-name="Group 81">
          <path id="Path_59" data-name="Path 59" d="M354.956,364.152l-14-12.845c-4.465-4.079-9.978-8.986-16.814-14.388A418.782,418.782,0,0,0,270.226,299.6c-8.214-4.686-19.019-10.695-29.713-15.546-10.8-5.016-19.129-8.545-26.3-11.135-6.284-2.315-12.4-4.465-18.853-6.615l-21.665-6.34,15.491-20.617c2.7-3.693,6.064-8.269,9.482-13.616,5.072-7.938,10.033-15.766,14.829-24.531,2.481-4.575,5.072-9.482,7.608-14.609,2.922-5.678,5.237-10.695,7.277-15.38,4.024-9.206,9.041-21.113,12.679-32.139,4.134-12.128,7.111-21.775,9.041-29.6,2.867-10.915,4.576-18.467,5.347-22.051l3.583-18.357,18.853,3.2c4.851.937,12.624,2.536,23.594,5.072,8.986,1.985,19.625,4.906,33.462,9.206,12.789,3.8,26.02,8.82,38.368,13.671,5.954,2.315,12.4,5.017,19.625,8.324,6.284,2.867,12.569,5.788,18.633,8.71,11.687,5.733,22.216,11.632,31.477,16.869l1.433.827c7.607,4.3,13.892,8.269,18.908,11.521l19.735,12.789-6.395,17.31c-3.473,8.6-6.946,16.979-10.529,25.083-3.749,8.931-8.986,19.68-16.318,33.682-6.5,12.844-14.553,26.13-20.838,36.218a504.605,504.605,0,0,1-44.763,60.8c-6.009,7.166-11.521,13.12-16.152,17.916ZM208.485,248.662c4.465,1.544,8.71,3.032,13.01,4.631,7.663,2.756,16.538,6.5,27.839,11.742,11.411,5.127,22.767,11.466,31.367,16.373A436.129,436.129,0,0,1,337.315,320.6c6.67,5.292,12.183,10.143,16.758,14.278,4.134-4.355,9.041-9.592,14.333-15.932a486.168,486.168,0,0,0,42.943-58.324c6.064-9.757,13.837-22.547,20.011-34.73,7.111-13.671,12.073-23.925,15.711-32.414q5.292-12.073,10.2-24.311l.5-1.378-5.623-3.583c-4.8-3.087-10.75-6.891-17.861-10.915l-1.488-.827c-9.041-5.072-19.239-10.86-30.375-16.262-5.9-2.867-12.018-5.733-18.192-8.489-6.946-3.2-12.789-5.678-18.468-7.883-12.018-4.686-24.752-9.537-36.88-13.12-13.4-4.134-23.539-6.946-32.029-8.82-7.773-1.819-15.215-3.418-21.168-4.576-1.378,6.34-3.252,13.782-5.237,21.444-2.095,8.324-5.182,18.523-9.482,31.091-3.859,11.742-9.1,24.2-13.286,33.737-2.15,5.017-4.686,10.474-7.828,16.538-2.646,5.237-5.292,10.364-7.938,15.16-5.568,10.2-11.632,19.57-15.6,25.8C213.611,241.5,210.855,245.41,208.485,248.662Z" transform="translate(-173.7 -69.06)" fill="#fff"/>
        </g>
        <g id="Group_82" data-name="Group 82" transform="translate(51.984 39.581)">
          <path id="Path_60" data-name="Path 60" d="M310.417,284.563l-8.049-6.229c-.055-.055-6.836-5.292-16.758-12.348-4.8-3.418-10.75-7.222-17.53-11.521-6.284-3.914-13.01-8.1-20.121-11.907-6.946-3.8-13.892-7.387-20.728-10.8-5.623-2.646-11.632-5.292-18.192-8.048-9.812-4.245-16.758-6.615-17.475-6.836L183.13,214l1.819-11.08,1.323-1.929c.055-.055,4.3-6.284,10.419-16.152,2.811-4.52,5.678-9.647,8.93-15.6l.882-1.6c3.528-6.56,7.277-13.616,10.364-20.507,3.308-7.222,6.56-14.553,9.647-22,2.426-6.174,4.851-12.844,7.222-19.515,4.134-11.521,6.284-19.46,6.284-19.515l2.646-9.868,9.923,2.37c.386.11,9.041,2.205,21.555,6.34,7.221,2.315,14.553,4.8,21.665,7.332,8.434,3.252,16.7,6.56,24.862,10.033,8.986,3.693,17.751,8.048,24.752,11.521l2.37,1.323c6.946,3.473,13.506,6.781,19.074,10.033,12.017,6.836,20.176,11.8,20.507,12.018l7.442,4.576-3.142,8.159c-.165.386-3.583,9.316-9.812,22.271-3.528,7.552-7.111,14.774-10.474,21.444q-6.615,12.321-13.4,23.925c-4.575,8.048-9.812,15.987-14.333,22.767-4.631,6.891-8.986,13.341-13.175,18.908-7.993,10.584-13.341,17.2-13.561,17.475Zm-99.724-82.855c1.985.827,4.134,1.709,6.45,2.7,6.725,2.867,13.01,5.623,19.019,8.434,7.332,3.638,14.5,7.332,21.61,11.191,7.663,4.079,14.774,8.489,21.389,12.624,7.056,4.52,13.286,8.49,18.523,12.183,3.473,2.481,6.56,4.741,9.151,6.615,1.929-2.481,4.245-5.513,6.836-8.931,3.8-5.127,8.049-11.356,12.514-17.971,4.3-6.45,9.261-14,13.561-21.554,4.465-7.607,8.765-15.38,13.01-23.153,3.2-6.284,6.615-13.341,10.143-20.728,2.37-4.961,4.3-9.316,5.788-12.734-3.252-1.929-7.442-4.355-12.238-7.111-5.127-2.977-11.411-6.119-18.081-9.482l-2.536-1.268c-6.67-3.308-15.05-7.442-23.484-10.915-7.993-3.418-16.042-6.67-24.035-9.7-6.67-2.37-13.782-4.8-20.838-7.056-3.914-1.268-7.5-2.37-10.419-3.252-.992,3.142-2.26,6.836-3.749,11.025-2.37,6.836-4.906,13.726-7.5,20.342-3.252,7.883-6.615,15.49-10.033,22.877-3.363,7.442-7.277,14.884-11.025,21.83l-.882,1.654c-3.308,6.009-6.395,11.687-9.537,16.648C213.008,198.014,211.8,199.944,210.693,201.708Z" transform="translate(-183.13 -76.24)" fill="#fff"/>
        </g>
        <path id="Path_61" data-name="Path 61" d="M193.87,145.425s1.985-3.473,5.017-8.71c2.977-5.292,7.056-12.569,10.529-19.9,3.583-7.332,7.111-14.939,9.7-20.728,1.323-2.922,2.26-5.292,2.977-7,.661-1.709,1.047-2.646,1.047-2.646s.992.386,2.756,1.047c1.709.662,4.3,1.6,7.166,2.811,5.843,2.426,13.671,5.788,21.61,9.427,8.048,3.583,15.6,7.607,21.444,10.639,5.843,3.142,9.757,5.237,9.757,5.237s-1.764,4.024-4.686,9.923c-3.032,5.954-7.111,13.726-11.246,21.279-4.024,7.5-8.6,14.884-12.018,20.342-3.418,5.347-5.678,8.93-5.678,8.93s-3.583-2.15-8.986-5.457c-5.4-3.2-12.459-7.332-19.956-11.08-7.387-3.8-14.664-7.387-20.121-9.923C197.619,146.969,193.87,145.425,193.87,145.425Z" transform="translate(-82.68 9.37)" fill="#fff"/>
      </g>
    </g>
  </g>
</svg>
